<?xml version="1.0" encoding="utf-8"?>
<!-- Generator: Adobe Illustrator 18.1.1, SVG Export Plug-In . SVG Version: 6.00 Build 0)  -->
<svg version="1.1" xmlns="http://www.w3.org/2000/svg" xmlns:xlink="http://www.w3.org/1999/xlink" x="0px" y="0px"
	 viewBox="0 0 145 145" enable-background="new 0 0 145 145" xml:space="preserve">
<g id="D_x5F_Empresarial" display="none">
	<g display="inline">
		<circle fill="#FFFFFF" stroke="#BE8210" stroke-width="0.8338" stroke-miterlimit="10" cx="72.5" cy="72.5" r="70.6"/>
		<g>
			<rect x="65.7" y="61.7" width="5.3" height="5.3"/>
			<rect x="76.2" y="61.7" width="5.3" height="5.3"/>
			<rect x="65.7" y="72.2" width="5.3" height="5.3"/>
			<rect x="76.2" y="72.2" width="5.3" height="5.3"/>
			<rect x="55.2" y="82.7" width="5.3" height="5.3"/>
			<rect x="65.7" y="82.7" width="5.3" height="5.3"/>
			<rect x="76.2" y="82.7" width="5.3" height="5.3"/>
			<rect x="86.7" y="82.7" width="5.3" height="5.3"/>
			<path d="M97.2,74.8h-7.9v-21c0-1.4-1.2-2.6-2.6-2.6h-5.3v-2.6c0-1.4-1.2-2.6-2.6-2.6H68.4c-1.5,0-2.6,1.2-2.6,2.6v2.6h-5.3
				c-1.5,0-2.6,1.2-2.6,2.6v21H50c-1.5,0-2.6,1.2-2.6,2.6v21c0,1.4,1.2,2.6,2.6,2.6h47.3c1.5,0,2.6-1.2,2.6-2.6v-21
				C99.9,76,98.7,74.8,97.2,74.8z M94.6,95.8H78.9v-5.3H68.4v5.3H52.6V80.1h7.9c1.5,0,2.6-1.2,2.6-2.6v-21h5.3
				c1.5,0,2.6-1.2,2.6-2.6v-2.6h5.3v2.6c0,1.4,1.2,2.6,2.6,2.6h5.3v21c0,1.4,1.2,2.6,2.6,2.6h7.9V95.8z"/>
		</g>
	</g>
	<path display="inline" fill="none" stroke="#000000" stroke-width="5" stroke-miterlimit="10" d="M72.5,72.5"/>
</g>
<g id="Amparos">
	<g>
		<circle fill="#FFFFFF" stroke="#BE8210" stroke-width="0.8338" stroke-miterlimit="10" cx="72.5" cy="72.5" r="70.6"/>
		<path fill="none" stroke="#000000" stroke-width="5" stroke-miterlimit="10" d="M101.1,92.8L73,64.8l3.7-3.8
			c0.9,0.8,3.9-0.9,4.7-1.8c0.9-0.9,0.9-2.3,0-3.2L69.8,44.3c-0.9-0.9-2.3-0.9-3.2,0c-0.9,0.9-2.5,4-1.6,4.9L50.1,64
			c-0.9-0.9-3.8,1.1-4.7,2c-0.9,0.9-0.9,2.3,0,3.2l11.7,11.7c0.9,0.9,2.3,0.9,3.2,0c0.9-0.9,2.4-4.3,1.5-5.2l3.8-3.6l28.1,28.1
			c1.1,1.1,4.6-0.6,5.7-1.7S102.2,93.9,101.1,92.8z"/>
		<line fill="none" stroke="#000000" stroke-width="5" stroke-miterlimit="10" x1="50.1" y1="64" x2="61.8" y2="75.7"/>
		<line fill="none" stroke="#000000" stroke-width="5" stroke-miterlimit="10" x1="65" y1="49.2" x2="76.8" y2="61"/>
		<line fill="none" stroke="#000000" stroke-width="5" stroke-miterlimit="10" x1="73" y1="64.8" x2="65.6" y2="72.1"/>
		<line fill="none" stroke="#000000" stroke-width="5" stroke-miterlimit="10" x1="93.8" y1="85.7" x2="86.4" y2="93"/>
	</g>
</g>
<g id="D_x5F_Fiscal" display="none">
	<g display="inline">
		<circle fill="#FFFFFF" stroke="#BE8210" stroke-width="0.8338" stroke-miterlimit="10" cx="72.5" cy="72.5" r="70.6"/>
		<g>
			<g>
				<path d="M51.8,54.2c1.2-1.1,5.6-2.6,10.2-2.6s9,1.6,10.2,2.6h5.5c0-5.9-10.8-7.8-15.7-7.8s-15.7,2-15.7,7.8v31.4
					c0,5.9,10.8,7.8,15.7,7.8c0.8,0,1.6-0.1,2.6-0.2V88c-0.9,0.1-1.7,0.2-2.6,0.2c-5,0-9.6-1.8-10.5-2.8v-1.8c3.5,1.5,7.8,2,10.5,2
					c0.8,0,1.6-0.1,2.6-0.2v-5.2c-0.8,0.1-1.7,0.2-2.6,0.2c-5.1,0-9.7-1.8-10.5-2.9v-1.8c3.5,1.5,7.8,2,10.5,2
					c0.8,0,1.6-0.1,2.6-0.2v-5.2c-0.8,0.1-1.7,0.2-2.6,0.2c-5.1,0-9.7-1.8-10.5-2.9v-1.8c3.5,1.5,7.8,2,10.5,2
					c0.8,0,1.6-0.1,2.6-0.2v-5.2c-0.8,0.1-1.7,0.2-2.6,0.2c-5.1,0-9.7-1.8-10.5-2.9V60c3.5,1.5,7.8,2,10.5,2c0.8,0,1.6-0.1,2.6-0.2
					v-5.2c-0.8,0.1-1.7,0.2-2.6,0.2C57.4,56.8,53.1,55.3,51.8,54.2z"/>
				<path d="M83,59.4c-4.9,0-15.7,2-15.7,7.8v23.5c0,5.9,10.8,7.8,15.7,7.8c4.9,0,15.7-2,15.7-7.8V67.3C98.6,61.4,87.9,59.4,83,59.4
					z M93.4,74.9c-0.8,1-5.4,2.9-10.5,2.9c-5.1,0-9.7-1.8-10.5-2.9v-1.8c3.5,1.5,7.8,2,10.5,2c2.7,0,7-0.6,10.5-2V74.9z M93.4,82.7
					c-0.8,1-5.4,2.9-10.5,2.9c-5.1,0-9.7-1.8-10.5-2.9v-1.8c3.5,1.5,7.8,2,10.5,2c2.7,0,7-0.6,10.5-2V82.7z M83,64.7
					c4.7,0,9,1.6,10.2,2.6c-1.2,1.1-5.6,2.6-10.2,2.6c-4.7,0-9-1.6-10.2-2.6C74,66.2,78.3,64.7,83,64.7z M83,93.4
					c-5,0-9.6-1.8-10.5-2.8v-1.8c3.5,1.5,7.8,2,10.5,2c2.7,0,7-0.6,10.5-2v1.8C92.6,91.6,88,93.4,83,93.4z"/>
			</g>
		</g>
	</g>
</g>
<g id="D_x5F_Administrativo" display="none">
	<g display="inline">
		<circle fill="#FFFFFF" stroke="#BE8210" stroke-width="0.8338" stroke-miterlimit="10" cx="72.5" cy="72.5" r="70.6"/>
		<g>
			<g>
				<rect x="60.4" y="73.6" width="26.1" height="5.2"/>
				<rect x="60.4" y="63.2" width="20.9" height="5.2"/>
				<rect x="60.4" y="84.1" width="26.1" height="5.2"/>
				<path d="M91.8,44.9h-5.2v-2.6c0-1.4-1.2-2.6-2.6-2.6s-2.6,1.2-2.6,2.6v2.6h-5.2v-2.6c0-1.4-1.2-2.6-2.6-2.6s-2.6,1.2-2.6,2.6
					v2.6h-5.2v-2.6c0-1.4-1.2-2.6-2.6-2.6s-2.6,1.2-2.6,2.6v2.6h-5.2c-2.9,0-5.2,2.3-5.2,5.2v47.1c0,2.9,2.3,5.2,5.2,5.2h36.6
					c2.9,0,5.2-2.3,5.2-5.2V50.1C97,47.2,94.7,44.9,91.8,44.9z M55.2,97.2V50.1h5.2v2.6c0,1.4,1.2,2.6,2.6,2.6s2.6-1.2,2.6-2.6v-2.6
					h5.2v2.6c0,1.4,1.2,2.6,2.6,2.6s2.6-1.2,2.6-2.6v-2.6h5.2v2.6c0,1.4,1.2,2.6,2.6,2.6s2.6-1.2,2.6-2.6v-2.6h5.2l0,47.1H55.2z"/>
			</g>
		</g>
	</g>
</g>
<g id="C_x5F_Exterior" display="none">
	<g display="inline">
		<circle fill="#FFFFFF" stroke="#BE8210" stroke-width="0.8338" stroke-miterlimit="10" cx="72.5" cy="72.5" r="70.6"/>
		<g>
			<g>
				<path d="M74.1,41.1c-17.3,0-31.4,14.1-31.4,31.4c0,17.3,14.1,31.4,31.4,31.4s31.4-14.1,31.4-31.4
					C105.4,55.2,91.4,41.1,74.1,41.1z M96.7,59.4h-6.3c-1.1-1.3-6.9-10.2-7.8-11.6C88.5,49.8,93.5,54,96.7,59.4z M58.4,72.5
					c0-8.6,7-15.7,15.7-15.7s15.7,7,15.7,15.7c0,8.7-7,15.7-15.7,15.7S58.4,81.2,58.4,72.5z M75.3,46.4l3.9,5.8
					c-1.6-0.4-3.4-0.7-5.1-0.7c-1.8,0-3.5,0.2-5.1,0.7l3.9-5.8c0.4,0,0.8-0.1,1.3-0.1C74.5,46.4,74.9,46.4,75.3,46.4z M65.6,47.8
					c-1,1.4-6.8,10.3-7.8,11.6h-6.3C54.6,54,59.6,49.8,65.6,47.8z M49.1,64.7h5.6c-1,2.4-1.5,5.1-1.5,7.8c0,2.8,0.6,5.4,1.5,7.8
					h-5.6c-0.8-2.5-1.2-5.1-1.2-7.8C47.9,69.8,48.3,67.1,49.1,64.7z M51.5,85.6h6.3c1.1,1.4,6.9,10.2,7.8,11.6
					C59.6,95.2,54.6,91,51.5,85.6z M72.8,98.6l-3.9-5.8c1.6,0.4,3.4,0.7,5.1,0.7c1.8,0,3.5-0.2,5.1-0.7l-3.9,5.8
					c-0.4,0-0.8,0.1-1.3,0.1C73.6,98.6,73.2,98.6,72.8,98.6z M82.5,97.2c1-1.4,6.8-10.3,7.8-11.6h6.3C93.5,91,88.5,95.2,82.5,97.2z
					 M99,80.3h-5.6c1-2.4,1.5-5.1,1.5-7.8c0-2.8-0.6-5.4-1.5-7.8H99c0.8,2.5,1.2,5.1,1.2,7.8C100.2,75.2,99.8,77.9,99,80.3z"/>
				<path d="M76,62.2h-4v2.1c-2.3,0.5-4,2.5-4,4.9c0,2.7,2.2,5,5,5h2c0.5,0,1,0.4,1,1s-0.4,1-1,1h-6.9v4h4v2h4V80
					c2.3-0.5,4-2.5,4-4.9c0-2.7-2.2-5-5-5h-2c-0.5,0-1-0.4-1-1s0.4-1,1-1H80v-4h-4V62.2z"/>
			</g>
		</g>
	</g>
</g>
<g id="Aduanero" display="none">
	<g display="inline">
		<circle fill="#FFFFFF" stroke="#BE8210" stroke-width="0.8338" stroke-miterlimit="10" cx="72.5" cy="72.5" r="70.6"/>
		<g>
			<g>
				<path d="M92.3,79.3h-9.8V74h-5.2v5.2H66.9V68.8h5.2v-5.2h-5.2v-9.8c1.7-0.4,3.4-0.7,5.2-0.7v-5.2C57.7,47.9,46,59.6,46,74
					s11.7,26.1,26.1,26.1c14.4,0,26.1-11.7,26.1-26.1H93C93,75.8,92.8,77.6,92.3,79.3z M61.7,55.9v7.6H54
					C55.9,60.4,58.5,57.8,61.7,55.9z M51.9,68.8h9.8v10.5h-9.8c-0.4-1.7-0.7-3.4-0.7-5.2C51.2,72.2,51.5,70.5,51.9,68.8z M54,84.5
					h7.6v7.6C58.5,90.3,55.9,87.7,54,84.5z M66.9,94.3v-9.8h10.5v9.8c-1.7,0.4-3.4,0.7-5.2,0.7C70.3,95,68.6,94.7,66.9,94.3z
					 M82.6,92.1v-7.6h7.6C88.4,87.7,85.7,90.3,82.6,92.1z"/>
				<path d="M103.3,51.9c-0.6-1.3-2.1-1.9-3.4-1.4l-7.3,3.3l-8.7-5.5l-4.2,2.2l8.2,5.3h0.3l-6.4,2.8l-5.5-2.5l-4.1,2.4l10.5,5.2
					l5.8-2.7l-4,10.3L89,69l5.7-10.5l7.1-3.1C103.3,54.8,103.9,53.2,103.3,51.9z"/>
			</g>
		</g>
	</g>
</g>
<g id="P_x5F_intelectual" display="none">
	<g display="inline">
		<circle fill="#FFFFFF" stroke="#BE8210" stroke-width="0.8338" stroke-miterlimit="10" cx="72.5" cy="72.5" r="70.6"/>
		<path d="M92.3,47.7h-40c-1.4,0-2.5,1.1-2.5,2.5v45c0,1.4,1.1,2.5,2.5,2.5h40c1.4,0,2.5-1.1,2.5-2.5v-45
			C94.8,48.9,93.6,47.7,92.3,47.7z M54.7,52.7h5v40h-5V52.7z M89.8,92.8h-25v-40h7.5v22.5l6.3-5l6.3,5V52.7h5V92.8z"/>
	</g>
</g>
</svg>
