<?xml version="1.0" encoding="utf-8"?>
<!-- Generator: Adobe Illustrator 18.1.1, SVG Export Plug-In . SVG Version: 6.00 Build 0)  -->
<svg version="1.1" id="Capa_1" xmlns="http://www.w3.org/2000/svg" xmlns:xlink="http://www.w3.org/1999/xlink" x="0px" y="0px"
	 viewBox="0 0 105 80" enable-background="new 0 0 105 80" xml:space="preserve">
<path fill="#BE8210" d="M13.1,27.7l4.8,5.1l-5.9,11.1v0L12,44.2l0,0.2l0.9,3.2l0.8,2.9l0.7,2.5l0.2,0.3l9.6,8.6l0.3,0.1l0.2,0.1
	l9.6-0.4l0.9,0l1.5,1.6l1.3,1.3l1,1l1,1l0.4,0.4L52,78.2c0.1,0.1,0.3,0.2,0.5,0.2l0,0c0,0,0,0,0,0c0.2,0,0.4-0.1,0.5-0.2h0
	l11.6-11.1l1.3-1.4l1-1l2.2-2.3l0.6-0.6l3.6,0.1l6.9,0.3l0.3-0.1l0.2-0.1l4.6-4.1l5.1-4.6l0.2-0.3l1.5-5.5l0.9-3.2l0-0.2L92.9,44v0
	l-5.9-11.1l4.8-5.1l0.1,0.2l1-1.1l-0.1-0.2l3.9-4l0.2-0.3l5.6-19.9l-0.6-0.3l-0.5-0.5L76.6,15.3L69,12.5v0l-3.1-1.1l-0.2,0l-5.5-0.1
	l-7.6-0.2l0,0l0,0l-7.6,0.1l0,0l-5.5,0.1l-0.2,0L36,12.5l0,0l-7.7,2.8L3.5,1.6L3.1,2.2L2.5,2.4l5.6,19.9l0.2,0.3l3.9,4L13.1,27.7z
	 M35.2,60.4L29,60.6l-4.1,0.2l-4.5-4l-4.8-4.3l-2.2-8.1L19,33.9l1.4,1.5l0,0l0,0l0,0l0.2,0.2l5.4,2l-2.6,3l-0.7,0.8l0,0.1l-0.1,0.4
	l0.3,5.8l0.1,2l0.2,0.5l5.7,5.2l0.5,0.2l7.6-0.4l0.5-0.2h0l2.9-3.3l2.2-2.5l0-0.1l0.1-0.4v0l-0.3-4.9l1.3,0.5l0.6,0.2l0,4.3l0,2.9
	L35.2,60.4z M30.4,39.6L30,39.9l0,0l-2.5,2.9l-0.1,0.3l-0.1,0.2l0.2,3.9l0.1,0.3l0.1,0.2l1.8,1.6l1.1,1l0.3,0.1l0.3,0.1h0l3.8-0.2
	l0.5-0.2l1.5-1.7l1.1-1.2v0l0,0l0.2-0.5l0-0.1l-0.2-3.8l-0.2-0.4l-0.6-0.6l2.4,0.9l1.5,0.6l0.3,5.2l-3.6,4.2l-1.1,1.2l-7,0.4
	l-4.1-3.8l-1.1-1l0-0.2l-0.4-7l3.5-4l3.8,1.4L30.4,39.6z M34.2,40.5l2.3,2.5l0.1,2.5l0,0.8l-0.5,0.6l-1.7,1.9L31.3,49l-2.4-2.2
	l-0.1-1.1l-0.1-2.3l2.2-2.5L34.2,40.5z M45.4,70l-4.1-3.9l-0.5-0.5l-1.3-1.3v0l-3.1-3.2l9.1-8.8l0,0l0.2-0.5l-0.1-6.6l0-0.4l5.8,2.1
	l-5.4,14.4l0,0.5l4.7,13.3L45.4,70z M52.5,34.8l1.8,4.4l0.9,2.3l-0.9,1.2l-1.8,2.6l-0.3-0.4l-2.4-3.4L52.5,34.8z M48.8,40.1
	l-3.2-4.4l0-0.1l3.5-7.7l1.5,3l1,2.1L48.8,40.1z M53.3,33l2.5-5.1l1.2,2.6l2.4,5.2l-0.8,1.1l-2.4,3.3l-1.3-3.2L53.3,33z M52.5,75.5
	l-2.6-7.4l-2.3-6.5l4.9-13.1l4.9,13.1l-3.6,10.2L52.5,75.5z M67.2,62.4l-1.8,1.8v0l-1.8,1.9l-0.4,0.4l-9.1,8.7l4.7-13.3v0l0-0.5
	l-1.3-3.4l-4.1-11l5.8-2.1l-0.1,7v0l0.1,0.2l0.1,0.3h0v0l9.1,8.8L67.2,62.4z M91.5,44.4l-1.7,6.5l-0.4,1.6l-4.9,4.4l-4.4,4l-7.3-0.3
	l-3-0.1l-5.9-5.7l-3.3-3.2l0.1-7.2l1.8-0.7l-0.3,4.8l0,0.2v0l0.1,0.3l0.1,0.3l5.1,5.8l0.5,0.2l2.1,0.1l5.5,0.3l0.5-0.2l5.7-5.2
	l0.1-0.1l0.2-0.4l0.2-4.1l0.2-3.7l-0.1-0.3l-0.1-0.2L81,40l-2.1-2.4l0.7-0.2l4.7-1.7l0.3-0.2l0,0l0.3-0.3l1.2-1.2L91.5,44.4z
	 M67,46.8l0.1,0.3l2.5,2.9l0.4,0.2l0.1,0.1l3.8,0.2l0.2-0.1l0.3-0.1l2.8-2.6l0-0.1l0.2-0.4l0.1-1.9l0.1-1.9l-0.1-0.2l-0.1-0.3
	l-1.3-1.5L75,39.9l-0.3-0.1l-0.2-0.1l-0.9-0.1l3.8-1.4l0.1,0.1l3.3,3.8l-0.4,7.2l-4.3,3.9l-0.9,0.9L73.6,54l-5.2-0.3l-4.7-5.4
	l0.3-4.7l0-0.5l4-1.4l-0.6,0.6l-0.2,0.4l-0.2,3.9L67,46.8z M68.3,46.4l0.2-3.4l2.3-2.5l2.3,0.3l0.9,0.1l2.2,2.5l-0.2,3.3L73.7,49
	l-1.3-0.1l-1.9-0.1L69,47.1L68.3,46.4z M95.6,21.8l-4.1,4.3l-5.3,5.6l-0.6,0.6l0,0l-2,2.1l-6.2,2.3l0,0l-3.4,1.2l-2.8,1l16-16l0,0
	l0,0l12.7-17L95.6,21.8z M77.1,16.6L99.3,4.5l-13,17.4l-9.8,9.8L68.1,40l-2.4,0.9l-2.7,1l0,0v0l-0.7,0.3l-2.6,0.9L55,44.8L54.4,45
	l2.2-3.1l4.1-5.8v0l0,0l0.1-0.2l2.3-3.2l2.9-3.3v0l3.2-3.7l1.5-1.8h0l1.7-2L77.1,16.6z M64.7,28.8l-1.2,1.4l-1.3,1.5l1.5-5l0.1-0.3
	L64.7,28.8z M64.5,24.2l2.3-4l1.2,1.5l1.4,1.8l-3.6,4.2L64.5,24.2z M69.2,14.1l6.3,2.3l-5.2,5.9l-2.8-3.6L69.2,14.1z M60.8,12.6
	l4.7,0.1l2.3,0.9l-1.8,5l-2.5,4.3L60.1,19L60.8,12.6z M62.9,24.3l-2.8,9.5l-3.5-7.6l3-5.7L62.9,24.3z M53.2,12.5l6.1,0.1L58.7,19
	l-1.2,2.4l-1.6,3.1l-2.6-5.9V12.5z M52.5,20.5l2.5,5.7L53.6,29l-1.1,2.3l-2.4-4.9L50,26.2L52.5,20.5z M51.8,12.5v6.2l-2.6,5.9
	L46.3,19l-0.6-6.4L51.8,12.5z M48.4,26.2l-3.5,7.6l-2.8-9.5l1.4-1.6l2-2.2L48.4,26.2z M41.2,26.3l1.6,5.3l-2.5-2.9L41.2,26.3z
	 M39.2,27.6l-3.5-4l-0.1-0.1l2.6-3.3l2.3,4L39.2,27.6z M39.5,12.7l4.7-0.1l0.6,6.3l-0.5,0.5l-3,3.4l-0.7-1.3l-1.7-3l-1.8-5
	L39.5,12.7z M35.8,14.1l1.1,3.2l0.5,1.5l-2.8,3.6l-5.2-5.9L35.8,14.1z M27.9,16.6l6.3,7.3v0l2.2,2.5l2.6,3l2.4,2.8l0.6,0.6l2.2,3.1
	l0.1,0.1l0.1,0.1h0l0,0l4.1,5.8l2.2,3.1l-4.8-1.8l-0.5-0.2L42,41.9l0,0L36.9,40L18.8,21.9l-0.1-0.1l-3.8-5.1L5.7,4.5L27.9,16.6z
	 M17.6,22.8L17.6,22.8L17.6,22.8l16.1,16.1l-6.2-2.2h0l-6.2-2.3l-2-2.1l0,0l-5.9-6.2l-4.1-4.3l-4.5-16L17.6,22.8z"/>
</svg>
