<?xml version="1.0" encoding="utf-8"?>
<!-- Generator: Adobe Illustrator 18.1.1, SVG Export Plug-In . SVG Version: 6.00 Build 0)  -->
<svg version="1.1" xmlns="http://www.w3.org/2000/svg" xmlns:xlink="http://www.w3.org/1999/xlink" x="0px" y="0px"
	 viewBox="0 0 142 142" enable-background="new 0 0 142 142" xml:space="preserve">
<g id="Resultados" display="none">
	<g display="inline">
		<g>
			<path fill="#BE8210" d="M111.9,16.5H80.1c-5,0-9.1,4.1-9.1,9.1v40.9c0,5,4.1,9.1,9.1,9.1h31.8c5,0,9.1-4.1,9.1-9.1V25.6
				C121,20.6,116.9,16.5,111.9,16.5z M80.1,66.5V25.6h18.2v13.6h13.6l0,27.2H80.1z"/>
			<path d="M111.9,93.7H77.4l1.3-1.3c1.4-1.4,1.7-3.5,0.9-5.2l-4.5-9.1c-1-2-3.4-3-5.5-2.3L48,83c-0.7-1.7-2.3-2.9-4.2-2.9H25.6
				c-2.5,0-4.5,2-4.5,4.5V121c0,2.5,2,4.5,4.5,4.5h18.2c2.5,0,4.5-2,4.5-4.5h50c1.4,0,2.8-0.7,3.6-1.8l13.6-18.2
				c1-1.4,1.2-3.2,0.4-4.8C115.2,94.7,113.6,93.7,111.9,93.7z M30.1,116.4V89.2h9.1v27.2H30.1z M96,111.9H48.3V92.4l20.4-6.8
				l1.3,2.6L63.2,95c-1.3,1.3-1.7,3.3-1,4.9c0.7,1.7,2.4,2.8,4.2,2.8h36.3L96,111.9z"/>
		</g>
	</g>
</g>
<g id="Honestidad">
	<g>
		<g>
			<g>
				<path d="M35.3,120.3v-18.2h-4.5c-5,0-9.1-4.1-9.1-9.1V52.2c0-5,4.1-9.1,9.1-9.1h40.9v9.1H30.8V93h13.6v9.1L56.5,93h33.3V65.8
					h9.1V93c0,5-4.1,9.1-9.1,9.1H59.6L35.3,120.3z"/>
			</g>
			<g>
				<polygon fill="#BE8210" points="94.4,54.1 77.5,37.2 84,30.8 94.4,41.2 113.9,21.7 120.3,28.1 				"/>
			</g>
		</g>
	</g>
</g>
<g id="Comunicación" display="none">
	<g display="inline">
		<g>
			<g>
				<path fill="#BE8210" d="M84.6,84.6c-0.7,0-1.4-0.2-2-0.5c-1.5-0.8-2.5-2.3-2.5-4.1V71h-4.5v-9.1h9.1c2.5,0,4.5,2,4.5,4.5V71
					l10.9-8.2c0.8-0.6,1.7-0.9,2.7-0.9h13.6V30.1H71v13.6h-9.1V30.1c0-5,4.1-9.1,9.1-9.1h45.4c5,0,9.1,4.1,9.1,9.1v31.8
					c0,5-4.1,9.1-9.1,9.1h-12.1l-17,12.7C86.5,84.3,85.6,84.6,84.6,84.6z"/>
			</g>
			<g>
				<path d="M52.8,84.6c-10,0-18.2-8.1-18.2-18.2c0-10,8.1-18.2,18.2-18.2S71,56.4,71,66.5C71,76.5,62.9,84.6,52.8,84.6z M52.8,57.4
					c-5,0-9.1,4.1-9.1,9.1c0,5,4.1,9.1,9.1,9.1s9.1-4.1,9.1-9.1C61.9,61.4,57.8,57.4,52.8,57.4z"/>
			</g>
			<g>
				<path d="M89.2,121H16.5v-4.5c0-16,14.9-27.2,36.3-27.2s36.3,11.2,36.3,27.2V121z M26.3,111.9h53.1c-2.7-8.2-12.9-13.6-26.5-13.6
					S29,103.7,26.3,111.9z"/>
			</g>
		</g>
	</g>
</g>
</svg>
