<?xml version="1.0" encoding="utf-8"?>
<!-- Generator: Adobe Illustrator 18.1.1, SVG Export Plug-In . SVG Version: 6.00 Build 0)  -->
<svg version="1.1" id="Capa_1" xmlns="http://www.w3.org/2000/svg" xmlns:xlink="http://www.w3.org/1999/xlink" x="0px" y="0px"
	 viewBox="0 0 165 51.6" enable-background="new 0 0 165 51.6" xml:space="preserve">
<g>
	<path fill="#BE8210" d="M9.7,17.8l3.1,3.3L9,28.3v0l0,0.1l0,0.1l0.6,2.1l0.5,1.9l0.4,1.6l0.1,0.2l6.3,5.6l0.2,0.1l0.2,0.1l6.3-0.2
		l0.6,0l1,1l0.8,0.9l0.6,0.7l0.6,0.6l0.2,0.3l7.6,7.2c0.1,0.1,0.2,0.1,0.3,0.1c0,0,0,0,0,0c0,0,0,0,0,0c0.1,0,0.2,0,0.3-0.1h0
		l7.5-7.2l0.9-0.9l0.6-0.7l1.5-1.5l0.4-0.4l2.4,0.1l4.5,0.2l0.2-0.1l0.1-0.1l3-2.7l3.3-3l0.1-0.2l1-3.5l0.6-2.1l0-0.1l0-0.1v0
		l-3.8-7.2l3.1-3.3l0.1,0.1l0.7-0.7l-0.1-0.1l2.5-2.6l0.1-0.2l3.6-12.9l-0.4-0.2l-0.3-0.4L51,9.7l-5-1.8v0l-2-0.7l-0.1,0l-3.6-0.1
		L35.3,7l0,0l0,0l-4.9,0.1l0,0l-3.6,0.1l-0.1,0l-2,0.7l0,0l-5,1.8L3.5,0.8L3.2,1.2L2.8,1.4l3.6,12.9l0.1,0.2l2.5,2.6L9.7,17.8z
		 M24.1,39l-4,0.2l-2.7,0.1l-2.9-2.6l-3.1-2.8l-1.4-5.2l3.6-6.8l0.9,0.9l0,0l0,0l0,0l0.2,0.1l3.5,1.3l-1.7,1.9L16,26.7l0,0.1
		L15.9,27l0.2,3.8l0.1,1.3l0.1,0.3l3.7,3.4l0.3,0.1l4.9-0.3l0.3-0.2h0l1.9-2.1l1.4-1.6l0-0.1l0.1-0.3v0l-0.2-3.2l0.8,0.3l0.4,0.1
		l0,2.8l0,1.9L24.1,39z M21,25.5l-0.3,0.1l0,0l-1.7,1.9L19,27.8l0,0.1l0.1,2.5l0.1,0.2l0.1,0.1l1.1,1l0.7,0.6l0.2,0.1l0.2,0.1h0
		l2.5-0.1l0.3-0.2l0.9-1.1l0.7-0.8v0l0,0l0.1-0.3l0-0.1l-0.1-2.5l-0.1-0.3l-0.4-0.4l1.6,0.6l1,0.4l0.2,3.4l-2.4,2.7L25,34.7
		l-4.5,0.3l-2.7-2.5l-0.7-0.6l0-0.1l-0.2-4.6l2.2-2.6l2.5,0.9L21,25.5z M23.4,26.1l1.5,1.6l0.1,1.6l0,0.5l-0.3,0.4l-1.1,1.2
		l-2.1,0.1L20,30.2l0-0.7l-0.1-1.5l1.4-1.6L23.4,26.1z M30.7,45.3l-2.6-2.5l-0.3-0.3l-0.8-0.9v0l-2-2.1l5.9-5.7l0,0l0.1-0.3l0-4.3
		l0-0.3l3.8,1.4l-3.5,9.4l0,0.3l3,8.7L30.7,45.3z M35.3,22.4l1.2,2.9l0.6,1.5l-0.6,0.8l-1.2,1.7l-0.2-0.3l-1.6-2.2L35.3,22.4z
		 M32.9,25.8l-2.1-2.9l0-0.1l2.3-5l1,2l0.7,1.4L32.9,25.8z M35.8,21.2l1.6-3.3l0.8,1.7l1.5,3.4l-0.5,0.7l-1.5,2.2l-0.9-2.1
		L35.8,21.2z M35.3,48.9L33.6,44l-1.5-4.2l3.2-8.5l3.2,8.5l-2.3,6.7L35.3,48.9z M44.9,40.4l-1.1,1.2v0l-1.2,1.2L42.3,43l-5.9,5.6
		l3-8.7v0l0-0.3l-0.8-2.2l-2.7-7.2l3.8-1.4l0,4.5v0l0.1,0.1l0.1,0.2h0v0l5.9,5.7L44.9,40.4z M60.7,28.6l-1.1,4.2l-0.3,1l-3.2,2.8
		l-2.9,2.6l-4.8-0.2L46.6,39l-3.8-3.7l-2.2-2.1l0-4.7l1.2-0.4l-0.2,3.1l0,0.1v0l0.1,0.2l0.1,0.2l3.3,3.8l0.3,0.2l1.4,0.1l3.6,0.2
		l0.3-0.1l3.7-3.4l0-0.1l0.1-0.2l0.1-2.7l0.1-2.4l-0.1-0.2l0-0.1l-0.8-0.9l-1.3-1.5l0.4-0.2l3.1-1.1l0.2-0.1l0,0l0.2-0.2l0.8-0.8
		L60.7,28.6z M44.7,30.2l0.1,0.2l1.7,1.9l0.2,0.1l0.1,0l2.5,0.1l0.1,0l0.2-0.1l1.8-1.7l0-0.1l0.1-0.3l0.1-1.3l0.1-1.3l-0.1-0.2
		l-0.1-0.2l-0.9-1l-0.8-0.9l-0.2-0.1l-0.1-0.1l-0.6-0.1l2.5-0.9l0.1,0.1l2.2,2.5l-0.2,4.7l-2.8,2.6l-0.6,0.6L49,34.9l-3.4-0.2
		l-3-3.5l0.2-3.1l0-0.3l2.6-0.9l-0.4,0.4l-0.1,0.3l-0.1,2.5L44.7,30.2z M45.6,29.9l0.1-2.2l1.5-1.6l1.5,0.2l0.6,0.1l1.4,1.6
		l-0.1,2.2l-1.6,1.4l-0.8,0L47,31.5l-1-1.1L45.6,29.9z M63.4,13.9l-2.7,2.8l-3.4,3.6l-0.4,0.4l0,0l-1.3,1.4l-4,1.5l0,0l-2.2,0.8
		L47.5,25L58,14.6l0,0l0,0l8.3-11.1L63.4,13.9z M51.3,10.6l14.4-7.9L57.3,14l-6.4,6.4l-5.4,5.4l-1.6,0.6L42.2,27l0,0v0l-0.5,0.2
		L40,27.8l-3,1.1l-0.4,0.2l1.4-2l2.7-3.8v0l0,0l0.1-0.1l1.5-2.1l1.9-2.2v0l2.1-2.4l1-1.1h0l1.1-1.3L51.3,10.6z M43.3,18.5l-0.8,0.9
		l-0.8,1l1-3.3l0.1-0.2L43.3,18.5z M43.1,15.5l1.5-2.6l0.8,1l0.9,1.2l-2.3,2.7L43.1,15.5z M46.2,8.9l4.1,1.5l-3.4,3.9L45.1,12
		L46.2,8.9z M40.7,8l3.1,0.1l1.5,0.6l-1.1,3.3l-1.6,2.8l-2.2-2.6L40.7,8z M42.1,15.6l-1.8,6.2L38,16.8l1.9-3.7L42.1,15.6z M35.8,7.9
		l4,0.1l-0.4,4.2l-0.8,1.6l-1,2l-1.7-3.8V7.9z M35.3,13.1l1.6,3.7l-0.9,1.9l-0.7,1.5l-1.6-3.2l-0.1-0.2L35.3,13.1z M34.9,7.9v4
		l-1.7,3.8l-1.9-3.6L30.9,8L34.9,7.9z M32.7,16.8l-2.3,4.9l-1.8-6.2l0.9-1l1.3-1.5L32.7,16.8z M28,16.9l1,3.5l-1.6-1.9L28,16.9z
		 M26.7,17.7l-2.3-2.6L24.4,15l1.7-2.1l1.5,2.6L26.7,17.7z M26.9,8.1L30,8l0.4,4.1l-0.3,0.4l-1.9,2.2l-0.5-0.8l-1.1-2l-1.1-3.3
		L26.9,8.1z M24.5,8.9l0.7,2.1l0.3,1l-1.8,2.3l-3.4-3.9L24.5,8.9z M19.3,10.6l4.1,4.7v0l1.4,1.6l1.7,2l1.6,1.8l0.4,0.4l1.4,2l0,0.1
		l0.1,0.1h0l0,0l2.7,3.8l1.4,2L31,27.9l-0.4-0.1L28.5,27l0,0l-3.3-1.2L13.4,14l0,0l-2.5-3.3l-6-8L19.3,10.6z M12.6,14.6L12.6,14.6
		L12.6,14.6L23.1,25l-4-1.5h0l-4-1.5l-1.3-1.4l0,0l-3.8-4l-2.7-2.8L4.4,3.5L12.6,14.6z"/>
	<path fill="#FFFFFF" d="M97.6,24c-0.7-0.7-1.7-1.4-2.8-2.1c-1.2-0.6-2.5-1.3-4.2-1.9c-1.2-0.4-2.2-0.8-3-1.2
		c-0.8-0.4-1.4-0.7-1.8-1.1s-0.7-0.7-0.9-1.1c-0.2-0.4-0.2-0.8-0.2-1.3c0-1.1,0.4-2,1.3-2.7c0.9-0.7,2.1-1.1,3.5-1.1
		c1.6,0,2.9,0.5,4.1,1.5c1.2,1,2.1,2.5,2.6,4.4h1.4l-0.4-7.6h-0.8l-0.6,1.8c-1-0.7-2.1-1.3-3.1-1.7c-1-0.4-2.2-0.6-3.4-0.6
		c-1.3,0-2.5,0.2-3.5,0.5s-2,0.9-2.7,1.5c-0.8,0.7-1.3,1.4-1.8,2.3c-0.4,0.9-0.6,1.9-0.6,3c0,1.9,0.7,3.5,2,4.9
		c1.3,1.4,3.3,2.6,6.1,3.7c1.4,0.5,2.5,1,3.3,1.4c0.9,0.4,1.5,0.8,2,1.2c0.5,0.4,0.8,0.8,1,1.2s0.3,0.9,0.3,1.5
		c0,0.7-0.1,1.2-0.4,1.8c-0.3,0.5-0.7,1-1.2,1.4c-0.5,0.4-1.1,0.7-1.9,0.9c-0.7,0.2-1.5,0.3-2.4,0.3c-2.1,0-3.9-0.6-5.4-1.9
		c-1.4-1.3-2.3-3-2.7-5.2H80l0.5,8.9h0.8l0.7-2.1c1.2,0.9,2.3,1.5,3.5,1.9c1.1,0.4,2.4,0.6,3.8,0.6c1.5,0,2.9-0.2,4.2-0.6
		c1.3-0.4,2.4-0.9,3.3-1.6c0.9-0.7,1.6-1.5,2.2-2.5c0.5-1,0.8-2.1,0.8-3.3c0-1-0.2-1.9-0.5-2.7C98.9,25.5,98.3,24.8,97.6,24z
		 M158.9,34.8c-0.8-0.3-1.4-0.8-2-1.5l-8.1-9.3c2.5-0.4,4.2-1.3,5.4-2.6c1.1-1.3,1.7-2.9,1.7-4.9c0-2.1-0.9-3.8-2.8-5
		c-1.8-1.2-4.5-1.8-7.8-1.8h-12.1v1.4c0.7,0,1.3,0.1,1.7,0.2c0.4,0.1,0.8,0.3,1,0.6c0.2,0.3,0.4,0.7,0.5,1.2c0.1,0.5,0.1,1.2,0.1,2
		v16.2c0,0.8,0,1.5-0.1,2c-0.1,0.5-0.3,0.9-0.5,1.2c-0.3,0.3-0.6,0.5-1.1,0.6c-0.5,0.1-1.1,0.2-1.9,0.2v1.4h13.9v-1.4
		c-1.1,0-2-0.1-2.7-0.2c-0.7-0.1-1.2-0.3-1.5-0.6c-0.4-0.3-0.6-0.7-0.7-1.3c-0.1-0.5-0.2-1.3-0.2-2.1v-6.9c0.4,0,0.8,0.1,1.2,0.4
		s0.9,0.7,1.5,1.4l8.7,10.6h8.3v-1.4C160.5,35.3,159.7,35.2,158.9,34.8z M143.8,22.2h-2.3v-9.9c0-0.4,0.2-0.6,0.6-0.6h3
		c1.6,0,2.9,0.5,3.8,1.4s1.4,2.1,1.4,3.6c0,2-0.5,3.4-1.6,4.2C147.7,21.8,146,22.2,143.8,22.2z M124.3,24c-0.7-0.7-1.7-1.4-2.8-2.1
		c-1.2-0.6-2.5-1.3-4.2-1.9c-1.2-0.4-2.2-0.8-3-1.2c-0.8-0.4-1.4-0.7-1.8-1.1c-0.4-0.4-0.7-0.7-0.9-1.1c-0.2-0.4-0.2-0.8-0.2-1.3
		c0-1.1,0.4-2,1.3-2.7c0.9-0.7,2.1-1.1,3.5-1.1c1.6,0,2.9,0.5,4.1,1.5c1.2,1,2.1,2.5,2.6,4.4h1.4l-0.4-7.6h-0.8l-0.6,1.8
		c-1-0.7-2.1-1.3-3.1-1.7c-1-0.4-2.2-0.6-3.4-0.6c-1.3,0-2.5,0.2-3.5,0.5c-1.1,0.4-2,0.9-2.7,1.5s-1.3,1.4-1.8,2.3
		c-0.4,0.9-0.6,1.9-0.6,3c0,1.9,0.7,3.5,2,4.9s3.3,2.6,6.1,3.7c1.4,0.5,2.5,1,3.3,1.4c0.9,0.4,1.5,0.8,2,1.2c0.5,0.4,0.8,0.8,1,1.2
		s0.3,0.9,0.3,1.5c0,0.7-0.1,1.2-0.4,1.8c-0.3,0.5-0.7,1-1.2,1.4c-0.5,0.4-1.1,0.7-1.9,0.9s-1.5,0.3-2.4,0.3c-2.1,0-3.9-0.6-5.4-1.9
		c-1.4-1.3-2.3-3-2.7-5.2h-1.4l0.5,8.9h0.8l0.7-2.1c1.2,0.9,2.3,1.5,3.5,1.9c1.1,0.4,2.4,0.6,3.8,0.6c1.5,0,2.9-0.2,4.2-0.6
		s2.4-0.9,3.3-1.6s1.6-1.5,2.2-2.5c0.5-1,0.8-2.1,0.8-3.3c0-1-0.2-1.9-0.5-2.7C125.6,25.5,125,24.8,124.3,24z"/>
</g>
</svg>
