<?xml version="1.0" encoding="utf-8"?>
<!-- Generator: Adobe Illustrator 18.1.1, SVG Export Plug-In . SVG Version: 6.00 Build 0)  -->
<svg version="1.1" id="Capa_1" xmlns="http://www.w3.org/2000/svg" xmlns:xlink="http://www.w3.org/1999/xlink" x="0px" y="0px"
	 viewBox="0 0 105 105" enable-background="new 0 0 105 105" xml:space="preserve">
<g>
	<circle fill="#FFFFFF" stroke="#BE8210" stroke-width="0.9697" stroke-miterlimit="10" cx="52.5" cy="52.5" r="50"/>
	<g>
		<g>
			<path d="M73.8,29.5h-5c0-1.4-1.1-2.5-2.5-2.5h-5.4c-1-2.9-3.8-5-7.1-5c-3.3,0-6,2.1-7.1,5h-5.4c-1.4,0-2.5,1.1-2.5,2.5h-5
				c-2.8,0-5,2.2-5,5V77c0,2.8,2.2,5,5,5h40c2.8,0,5-2.2,5-5V34.5C78.8,31.8,76.6,29.5,73.8,29.5z M41.3,42h25v27.5h-25V42z
				 M43.8,32h5c1.4,0,2.5-1.1,2.5-2.5c0-1.4,1.1-2.5,2.5-2.5c1.4,0,2.5,1.1,2.5,2.5c0,1.4,1.1,2.5,2.5,2.5h5v5h-20V32z M73.8,77h-40
				V34.5h5V37c-1.4,0-2.5,1.1-2.5,2.5V72c0,1.4,1.1,2.5,2.5,2.5h30c1.4,0,2.5-1.1,2.5-2.5V39.5c0-1.4-1.1-2.5-2.5-2.5v-2.5h5V77z"/>
			<rect x="46.3" y="48.7" width="15" height="5"/>
			<rect x="46.3" y="58" width="15" height="5"/>
		</g>
	</g>
</g>
</svg>
