<?xml version="1.0" encoding="utf-8"?>
<!-- Generator: Adobe Illustrator 18.1.1, SVG Export Plug-In . SVG Version: 6.00 Build 0)  -->
<svg version="1.1" id="Capa_1" xmlns="http://www.w3.org/2000/svg" xmlns:xlink="http://www.w3.org/1999/xlink" x="0px" y="0px"
	 viewBox="0 0 105 105" enable-background="new 0 0 105 105" xml:space="preserve">
<g>
	<circle fill="#FFFFFF" stroke="#BE8210" stroke-width="0.9697" stroke-miterlimit="10" cx="52.5" cy="52.5" r="50"/>
	<g>
		<g>
			<g>
				<g>
					<path d="M52.5,52.5c-5.5,0-10-4.5-10-10s4.5-10,10-10s10,4.5,10,10S58,52.5,52.5,52.5z M52.5,37.5c-2.8,0-5,2.2-5,5
						c0,2.8,2.2,5,5,5s5-2.2,5-5C57.5,39.7,55.3,37.5,52.5,37.5z"/>
				</g>
				<g>
					<path d="M72.5,72.5h-40V70c0-8.8,8.2-15,20-15s20,6.2,20,15V72.5z M37.9,67.5h29.2C65.6,63,60,60,52.5,60S39.4,63,37.9,67.5z"
						/>
				</g>
			</g>
		</g>
	</g>
</g>
</svg>
