<?xml version="1.0" encoding="utf-8"?>
<!-- Generator: Adobe Illustrator 18.1.1, SVG Export Plug-In . SVG Version: 6.00 Build 0)  -->
<svg version="1.1" id="Capa_1" xmlns="http://www.w3.org/2000/svg" xmlns:xlink="http://www.w3.org/1999/xlink" x="0px" y="0px"
	 viewBox="0 0 105 105" enable-background="new 0 0 105 105" xml:space="preserve">
<g>
	<circle fill="#FFFFFF" stroke="#BE8210" stroke-width="0.9697" stroke-miterlimit="10" cx="52.5" cy="52.5" r="50"/>
	<path d="M75,32.2H57.5c-0.7,0-1.3,0.3-1.8,0.7l-3.2,3.2L49.3,33c-0.5-0.5-1.1-0.7-1.8-0.7H30c-1.4,0-2.5,1.1-2.5,2.5v32.5
		c0,1.4,1.1,2.5,2.5,2.5h16.5l4.3,4.3c0.5,0.5,1.1,0.7,1.8,0.7s1.3-0.2,1.8-0.7l4.3-4.3H75c1.4,0,2.5-1.1,2.5-2.5V34.7
		C77.5,33.4,76.4,32.2,75,32.2z M47.5,64.8h-15V37.2h14l3.5,3.5v25.4l-0.7-0.7C48.8,65,48.2,64.8,47.5,64.8z M72.5,64.8h-15
		c-0.7,0-1.3,0.3-1.8,0.7L55,66.2V40.8l3.5-3.5h14V64.8z"/>
</g>
</svg>
