<?xml version="1.0" encoding="utf-8"?>
<!-- Generator: Adobe Illustrator 18.1.1, SVG Export Plug-In . SVG Version: 6.00 Build 0)  -->
<svg version="1.1" id="Capa_1" xmlns="http://www.w3.org/2000/svg" xmlns:xlink="http://www.w3.org/1999/xlink" x="0px" y="0px"
	 viewBox="0 0 105 105" enable-background="new 0 0 105 105" xml:space="preserve">
<g>
	<circle fill="#FFFFFF" stroke="#BE8210" stroke-width="0.9697" stroke-miterlimit="10" cx="52.5" cy="52.5" r="50"/>
	<path d="M77.4,71l-2.5-7.5c-0.3-1-1.3-1.7-2.4-1.7H70V44.2h2.5c1.4,0,2.5-1.1,2.5-2.5v-5c0-1-0.6-2-1.6-2.3l-20-7.5
		c-0.6-0.2-1.2-0.2-1.8,0l-20,7.5c-1,0.4-1.6,1.3-1.6,2.3v5c0,1.4,1.1,2.5,2.5,2.5H35v17.5h-2.5c-1.1,0-2,0.7-2.4,1.7L27.6,71
		c-0.3,0.8-0.1,1.6,0.3,2.3c0.5,0.7,1.2,1,2,1h45c0.8,0,1.6-0.4,2-1C77.5,72.6,77.6,71.7,77.4,71z M65,61.8h-5V44.2h5V61.8z
		 M55,44.2v17.5h-5V44.2H55z M35,38.5l17.5-6.6L70,38.5v0.8H35V38.5z M40,44.2h5v17.5h-5V44.2z M33.5,69.3l0.8-2.5h36.4l0.8,2.5
		H33.5z"/>
</g>
</svg>
