<?xml version="1.0" encoding="utf-8"?>
<!-- Generator: Adobe Illustrator 18.1.1, SVG Export Plug-In . SVG Version: 6.00 Build 0)  -->
<svg version="1.1" id="Capa_1" xmlns="http://www.w3.org/2000/svg" xmlns:xlink="http://www.w3.org/1999/xlink" x="0px" y="0px"
	 viewBox="0 0 105 105" enable-background="new 0 0 105 105" xml:space="preserve">
<g>
	<circle fill="#FFFFFF" stroke="#BE8210" stroke-width="0.9697" stroke-miterlimit="10" cx="52.5" cy="52.5" r="50"/>
	<g>
		<g>
			<path d="M72.5,36.2v-2.5h-5v2.5h-5v-5c0-1.4-1.1-2.5-2.5-2.5H45c-1.4,0-2.5,1.1-2.5,2.5v5h-5v-2.5h-5v2.5c-2.8,0-5,2.2-5,5v30
				c0,2.8,2.2,5,5,5h40c2.8,0,5-2.2,5-5v-30C77.5,38.5,75.3,36.2,72.5,36.2z M47.5,33.7h10v2.5h-10V33.7z M72.5,71.3h-40v-30h40
				V71.3z"/>
			<path d="M55,43.7h-5v2.6c-2.9,0.6-5,3.1-5,6.1c0,3.4,2.8,6.3,6.3,6.3h2.5c0.7,0,1.3,0.6,1.3,1.3c0,0.7-0.6,1.3-1.3,1.3H45v5h5
				v2.5h5v-2.6c2.9-0.6,5-3.1,5-6.1c0-3.4-2.8-6.3-6.3-6.3h-2.5c-0.7,0-1.3-0.6-1.3-1.3s0.6-1.3,1.3-1.3H60v-5h-5V43.7z"/>
		</g>
	</g>
</g>
</svg>
