<?xml version="1.0" encoding="utf-8"?>
<!-- Generator: Adobe Illustrator 18.1.1, SVG Export Plug-In . SVG Version: 6.00 Build 0)  -->
<svg version="1.1" id="Capa_1" xmlns="http://www.w3.org/2000/svg" xmlns:xlink="http://www.w3.org/1999/xlink" x="0px" y="0px"
	 viewBox="0 0 105 105" enable-background="new 0 0 105 105" xml:space="preserve">
<g>
	<circle fill="#FFFFFF" stroke="#BE8210" stroke-width="0.9697" stroke-miterlimit="10" cx="52.5" cy="52.5" r="50"/>
	<g>
		<polygon points="52.1,57.6 46.5,52 43,55.4 52.1,64.5 66,50.6 62.5,47.1 		"/>
		<path d="M74,39.1H53.9l-4-5.4c-0.9-1.2-2.4-1.9-3.9-1.9H35c-2.7,0-4.9,2.2-4.9,4.9v31.6c0,2.7,2.2,4.9,4.9,4.9h39
			c2.7,0,4.9-2.2,4.9-4.9V44C78.8,41.3,76.7,39.1,74,39.1z M35,68.3V36.7h11l4,5.4c0.9,1.2,2.4,1.9,3.9,1.9H74l0,24.3H35z"/>
	</g>
</g>
</svg>
