<?xml version="1.0" encoding="utf-8"?>
<!-- Generator: Adobe Illustrator 18.1.1, SVG Export Plug-In . SVG Version: 6.00 Build 0)  -->
<svg version="1.1" id="Capa_1" xmlns="http://www.w3.org/2000/svg" xmlns:xlink="http://www.w3.org/1999/xlink" x="0px" y="0px"
	 viewBox="0 0 105 105" enable-background="new 0 0 105 105" xml:space="preserve">
<g>
	<g>
		<circle fill="#FFFFFF" stroke="#BE8210" stroke-width="0.9697" stroke-miterlimit="10" cx="52.5" cy="52.5" r="50"/>
	</g>
	<g>
		<path d="M64.7,52.5v17.4l-10.8-7.2c-0.8-0.5-1.9-0.5-2.7,0l-10.8,7.2V33h29.2c0-2.7-2.2-4.9-4.9-4.9H40.3c-2.7,0-4.9,2.2-4.9,4.9
			v41.4c0,0.9,0.5,1.7,1.3,2.1c0.8,0.4,1.7,0.4,2.5-0.1l13.3-8.8l13.3,8.8c0.4,0.3,0.9,0.4,1.4,0.4c0.4,0,0.8-0.1,1.1-0.3
			c0.8-0.4,1.3-1.2,1.3-2.1V52.5H64.7z"/>
		<g>
			<polygon points="52.5,56.8 43,47.3 47.3,43 52.5,48.2 62.5,38.2 66.8,42.5 			"/>
		</g>
	</g>
</g>
</svg>
