<?xml version="1.0" encoding="utf-8"?>
<!-- Generator: Adobe Illustrator 18.1.1, SVG Export Plug-In . SVG Version: 6.00 Build 0)  -->
<svg version="1.1" id="Capa_1" xmlns="http://www.w3.org/2000/svg" xmlns:xlink="http://www.w3.org/1999/xlink" x="0px" y="0px"
	 viewBox="0 0 105 105" enable-background="new 0 0 105 105" xml:space="preserve">
<g>
	<circle fill="#FFFFFF" stroke="#BE8210" stroke-width="0.9697" stroke-miterlimit="10" cx="52.5" cy="52.5" r="50"/>
	<g>
		<g>
			<polygon points="49.6,45 46.3,41.7 42.8,45.3 49.6,52 61.3,40.3 57.8,36.7 			"/>
			<polygon points="49.6,62.5 46.3,59.2 42.8,62.8 49.6,69.5 61.3,57.8 57.8,54.2 			"/>
			<path d="M67.1,28.5h-30c-2.8,0-5,2.2-5,5v40c0,2.8,2.2,5,5,5h30c2.8,0,5-2.2,5-5v-40C72.1,30.7,69.8,28.5,67.1,28.5z M37.1,73.5
				v-40h30l0,40H37.1z"/>
		</g>
	</g>
</g>
</svg>
